<?xml version="1.0" encoding="UTF-8" standalone="no"?>
<!DOCTYPE svg PUBLIC "-//W3C//DTD SVG 1.1//EN" "http://www.w3.org/Graphics/SVG/1.1/DTD/svg11.dtd">
<svg width="100%" height="100%" viewBox="0 0 1134 1134" version="1.1" xmlns="http://www.w3.org/2000/svg" xmlns:xlink="http://www.w3.org/1999/xlink" xml:space="preserve" xmlns:serif="http://www.serif.com/" style="fill-rule:evenodd;clip-rule:evenodd;stroke-linecap:round;stroke-linejoin:round;stroke-miterlimit:1.5;">
    <g transform="matrix(1,0,0,1,-524.475,-720.353)">
        <g id="Circle" transform="matrix(0.906436,0.422342,-0.422342,0.906436,775.66,-423.548)">
            <circle cx="1008.6" cy="1417.35" r="566.74" style="fill:white;"/>
        </g>
        <g transform="matrix(-0.904976,-0.425463,-0.425463,0.904976,2667.01,532.559)">
            <g id="Left-Body" serif:id="Left Body">
                <path d="M1098.44,933.552C1098.44,933.552 1113.07,933.552 1131.67,933.552C1181.62,933.552 1230.23,949.685 1270.26,979.549C1274.25,982.524 1278.17,985.451 1281.94,988.258C1303.46,1004.32 1320.27,1025.88 1330.59,1050.67C1332.97,1056.4 1335.48,1062.44 1338.03,1068.55C1356,1111.73 1361.14,1159.18 1352.84,1205.21C1352.84,1205.21 1352.84,1205.21 1352.84,1205.21C1342.28,1263.78 1313.67,1317.57 1271.01,1359.07C1261.99,1367.85 1253,1376.59 1244.76,1384.61C1217.5,1411.13 1198.4,1444.91 1189.75,1481.95C1187.81,1490.28 1186.05,1498.92 1184.67,1507.52C1178.74,1544.57 1187.29,1581.29 1187.63,1582.3C1187.63,1582.3 1187.63,1582.3 1187.63,1582.3C1187.75,1582.68 1189.56,1587.01 1192.44,1593.87C1218.21,1665.83 1286.4,1713.85 1362.84,1713.85C1364.74,1713.9 1366.64,1713.9 1368.53,1713.9C1415.16,1713.9 1455.6,1681.67 1466,1636.21C1466,1636.21 1466,1636.21 1466,1636.21C1470.91,1614.71 1471.34,1592.42 1467.24,1570.75C1466.73,1568.06 1466.2,1565.27 1465.66,1562.43C1457.15,1517.41 1417.82,1484.82 1372.01,1484.82C1372.01,1484.82 1372.01,1484.82 1372.01,1484.82C1324.68,1484.82 1285.94,1522.48 1284.61,1569.79C1284.59,1570.3 1284.58,1570.82 1284.56,1571.33C1283.77,1599.53 1304.88,1623.56 1332.95,1626.39C1341.48,1627.25 1347.65,1627.87 1347.65,1627.87" style="fill:none;stroke:rgb(0,114,225);stroke-width:50px;"/>
            </g>
        </g>
        <g transform="matrix(0.904976,0.425463,-0.425463,0.904976,681.603,-402.134)">
            <g id="Right-Body" serif:id="Right Body">
                <path d="M1098.44,933.552C1098.44,933.552 1113.07,933.552 1131.67,933.552C1181.62,933.552 1230.23,949.685 1270.26,979.549C1274.25,982.524 1278.17,985.451 1281.94,988.258C1303.46,1004.32 1320.27,1025.88 1330.59,1050.67C1332.97,1056.4 1335.48,1062.44 1338.03,1068.55C1356,1111.73 1361.14,1159.18 1352.84,1205.21C1352.84,1205.21 1352.84,1205.21 1352.84,1205.21C1342.28,1263.78 1313.67,1317.57 1271.01,1359.07C1261.99,1367.85 1253,1376.59 1244.76,1384.61C1217.5,1411.13 1198.4,1444.91 1189.75,1481.95C1187.81,1490.28 1186.05,1498.92 1184.67,1507.52C1178.74,1544.57 1187.29,1581.29 1187.63,1582.3C1187.63,1582.3 1187.63,1582.3 1187.63,1582.3C1187.75,1582.68 1189.56,1587.01 1192.44,1593.87C1218.21,1665.83 1286.4,1713.85 1362.84,1713.85C1364.74,1713.9 1366.64,1713.9 1368.53,1713.9C1415.16,1713.9 1455.6,1681.67 1466,1636.21C1466,1636.21 1466,1636.21 1466,1636.21C1470.91,1614.71 1471.34,1592.42 1467.24,1570.75C1466.73,1568.06 1466.2,1565.27 1465.66,1562.43C1457.15,1517.41 1417.82,1484.82 1372.01,1484.82C1372.01,1484.82 1372.01,1484.82 1372.01,1484.82C1324.68,1484.82 1285.94,1522.48 1284.61,1569.79C1284.59,1570.3 1284.58,1570.82 1284.56,1571.33C1283.77,1599.53 1304.88,1623.56 1332.95,1626.39C1341.48,1627.25 1347.65,1627.87 1347.65,1627.87" style="fill:none;stroke:rgb(0,114,225);stroke-width:50px;"/>
            </g>
        </g>
        <g id="Middle-Tentacle" serif:id="Middle Tentacle" transform="matrix(0.904976,0.425463,-0.425463,0.904976,681.603,-402.134)">
            <path d="M1098.44,1450.69L1098.44,1698.92" style="fill:none;stroke:rgb(0,114,225);stroke-width:50px;"/>
        </g>
        <g id="Face" transform="matrix(0.904976,0.425463,-0.425463,0.904976,681.834,-406.162)">
            <g id="Eyes" transform="matrix(1,0,0,1,-7.9893,0.998662)">
                <g id="Right-Eye" serif:id="Right Eye" transform="matrix(0.999905,-0.0137713,0.0137713,0.999905,-80.3591,206.339)">
                    <circle cx="1255.94" cy="1003.23" r="15.78" style="fill:rgb(0,114,225);stroke:rgb(0,114,225);stroke-width:33.16px;"/>
                </g>
                <g id="Left-Eye" serif:id="Left Eye" transform="matrix(-0.999905,0.0137713,0.0137713,0.999905,2265.59,171.748)">
                    <circle cx="1255.94" cy="1003.23" r="15.78" style="fill:rgb(0,114,225);stroke:rgb(0,114,225);stroke-width:33.16px;"/>
                </g>
            </g>
            <g id="Mouth" transform="matrix(-0.0137713,-0.999905,0.999905,-0.0137713,-46.8506,2307.75)">
                <path d="M1034,1133.74C1027.27,1133.74 1005.72,1145.55 1005.72,1159.84C1005.72,1174.14 1027.27,1185.55 1034,1185.55C1031.98,1179.5 1014.26,1170.18 1014.26,1159.84C1014.26,1149.51 1031.98,1139.78 1034,1133.74Z" style="stroke:rgb(0,114,225);stroke-width:14.06px;"/>
            </g>
        </g>
    </g>
</svg>
